<?xml version="1.0" encoding="UTF-8"?>
<!DOCTYPE svg PUBLIC "-//W3C//DTD SVG 1.1//EN" "http://www.w3.org/Graphics/SVG/1.1/DTD/svg11.dtd">
<!-- Creator: CorelDRAW 2020 (64 Bit) -->
<svg xmlns="http://www.w3.org/2000/svg" xml:space="preserve" width="5.263mm" height="5.2911mm" version="1.1" style="shape-rendering:geometricPrecision; text-rendering:geometricPrecision; image-rendering:optimizeQuality; fill-rule:evenodd; clip-rule:evenodd"
viewBox="0 0 377.15 379.16"
 xmlns:xlink="http://www.w3.org/1999/xlink"
 xmlns:xodm="http://www.corel.com/coreldraw/odm/2003">
 <defs>
  <style type="text/css">
   <![CDATA[
    .fil0 {fill:#DD4B39;fill-rule:nonzero}
   ]]>
  </style>
 </defs>
 <g id="Camada_x0020_1">
  <metadata id="CorelCorpID_0Corel-Layer"/>
  <g id="_1837042051296">
   <g id="_1956209451472">
    <g id="_1947241129760">
     <g>
      <polygon class="fil0" points="243.69,0 -0,0 -0,0 -0,0 -0,379.16 243.69,379.16 243.69,352.04 26.99,352.04 26.99,26.99 243.69,26.99 "/>
      <path class="fil0" d="M118.41 162.47l192.89 0 -53.73 -94.86c-1.28,-2.67 0.51,-5.73 3.56,-5.73l41.89 0c3.56,0 6.75,1.91 8.28,5.1l64.42 117.9c1.91,3.94 1.91,8.65 -0.13,12.6l-64.3 114.33c-1.53,3.18 -4.84,5.1 -8.41,5.1l-42.01 0c-2.93,0 -4.84,-3.05 -3.56,-5.6l53.73 -94.86 -192.89 0c-5.6,0 -10.06,-4.59 -10.06,-10.06l0 -33.86c0,-5.6 4.59,-10.06 10.06,-10.06l0.26 0 0 0.01z"/>
     </g>
    </g>
   </g>
  </g>
 </g>
</svg>
