<?xml version="1.0" encoding="UTF-8"?>
<!DOCTYPE svg PUBLIC "-//W3C//DTD SVG 1.1//EN" "http://www.w3.org/Graphics/SVG/1.1/DTD/svg11.dtd">
<!-- Creator: CorelDRAW 2020 (64 Bit) -->
<svg xmlns="http://www.w3.org/2000/svg" xml:space="preserve" width="5.67mm" height="5.67mm" version="1.1" style="shape-rendering:geometricPrecision; text-rendering:geometricPrecision; image-rendering:optimizeQuality; fill-rule:evenodd; clip-rule:evenodd"
viewBox="0 0 17.44 17.44"
 xmlns:xlink="http://www.w3.org/1999/xlink"
 xmlns:xodm="http://www.corel.com/coreldraw/odm/2003">
 <defs>
  <style type="text/css">
   <![CDATA[
    .str0 {stroke:#737380;stroke-width:1.45;stroke-linecap:round;stroke-linejoin:round;stroke-miterlimit:22.9256}
    .fil0 {fill:none}
   ]]>
  </style>
 </defs>
 <g id="Camada_x0020_1">
  <metadata id="CorelCorpID_0Corel-Layer"/>
  <g id="_2540787543472">
   <circle class="fil0 str0" cx="8.72" cy="8.72" r="2.18"/>
   <path class="fil0 str0" d="M14.1 10.9c-0.07,0.15 -0.1,0.32 -0.1,0.48 0,0.31 0.12,0.61 0.34,0.84l0.04 0.04c0.27,0.27 0.43,0.64 0.43,1.03 0,0.39 -0.15,0.76 -0.43,1.03 -0.27,0.27 -0.64,0.43 -1.03,0.43 -0.39,0 -0.76,-0.15 -1.03,-0.43l-0.04 -0.04c-0.22,-0.22 -0.52,-0.34 -0.84,-0.34 -0.17,0 -0.33,0.03 -0.48,0.1 -0.44,0.19 -0.72,0.62 -0.73,1.1l0 0.12c0,0.8 -0.65,1.45 -1.45,1.45 -0.8,0 -1.45,-0.65 -1.45,-1.45l0 -0.07c-0.01,-0.49 -0.32,-0.93 -0.78,-1.1 -0.15,-0.07 -0.32,-0.1 -0.48,-0.1 -0.31,0 -0.61,0.12 -0.84,0.34l-0.04 0.04c-0.27,0.27 -0.64,0.43 -1.03,0.43 -0.39,0 -0.76,-0.15 -1.03,-0.43 -0.27,-0.27 -0.43,-0.64 -0.43,-1.03 0,-0.39 0.15,-0.76 0.43,-1.03l0.04 -0.04c0.22,-0.22 0.34,-0.52 0.34,-0.84 0,-0.17 -0.03,-0.33 -0.1,-0.48 -0.19,-0.44 -0.62,-0.72 -1.1,-0.73l-0.12 0c-0.8,0 -1.45,-0.65 -1.45,-1.45 0,-0.8 0.65,-1.45 1.45,-1.45l0.07 0c0.49,-0.01 0.93,-0.32 1.1,-0.78 0.07,-0.15 0.1,-0.32 0.1,-0.48 0,-0.31 -0.12,-0.61 -0.34,-0.84l-0.04 -0.04c-0.27,-0.27 -0.43,-0.64 -0.43,-1.03 0,-0.39 0.15,-0.76 0.43,-1.03 0.27,-0.27 0.64,-0.43 1.03,-0.43 0.39,0 0.76,0.15 1.03,0.43l0.04 0.04c0.22,0.22 0.52,0.34 0.84,0.34 0.17,0 0.33,-0.03 0.48,-0.1l0.06 -0c0.44,-0.19 0.73,-0.62 0.73,-1.1l-0 -0.12c0,-0.8 0.65,-1.45 1.45,-1.45 0.8,0 1.45,0.65 1.45,1.45l0 0.07c0,0.48 0.29,0.91 0.73,1.1 0.15,0.07 0.32,0.1 0.48,0.1 0.31,0 0.61,-0.12 0.84,-0.34l0.04 -0.04c0.27,-0.27 0.64,-0.43 1.03,-0.43 0.39,0 0.76,0.15 1.03,0.43 0.27,0.27 0.43,0.64 0.43,1.03 0,0.39 -0.15,0.76 -0.43,1.03l-0.04 0.04c-0.22,0.22 -0.34,0.52 -0.34,0.84 0,0.17 0.03,0.33 0.1,0.48l0 0.06c0.19,0.44 0.62,0.73 1.1,0.73l0.12 -0c0.8,0 1.45,0.65 1.45,1.45 0,0.8 -0.65,1.45 -1.45,1.45l-0.07 0c-0.48,0 -0.91,0.29 -1.1,0.73l0 0z"/>
  </g>
 </g>
</svg>
